<svg xmlns="http://www.w3.org/2000/svg" width="1200" height="630" viewBox="0 0 1200 630" role="img" aria-labelledby="title desc">
  <title id="title">Atlas Abrasives &amp; Coatings</title>
  <desc id="desc">Professional sandblasting and surface prep services</desc>
  <defs>
    <linearGradient id="bg" x1="0" y1="0" x2="1" y2="1">
      <stop offset="0%" stop-color="#23282d" />
      <stop offset="100%" stop-color="#121416" />
    </linearGradient>
    <linearGradient id="accent" x1="0" y1="0" x2="1" y2="0">
      <stop offset="0%" stop-color="#d39b59" />
      <stop offset="100%" stop-color="#9b652d" />
    </linearGradient>
  </defs>
  <rect width="1200" height="630" fill="url(#bg)" />
  <g opacity="0.15" stroke="#9ca9b2">
    <path d="M0 70h1200M0 140h1200M0 210h1200M0 280h1200M0 350h1200M0 420h1200M0 490h1200M0 560h1200" />
    <path d="M120 0v630M240 0v630M360 0v630M480 0v630M600 0v630M720 0v630M840 0v630M960 0v630M1080 0v630" />
  </g>
  <rect x="90" y="120" width="1020" height="390" fill="none" stroke="url(#accent)" stroke-width="3" />
  <text x="130" y="280" fill="#ffffff" font-family="Barlow Condensed, Arial Narrow, sans-serif" font-size="96" font-weight="700" letter-spacing="3">
    ATLAS ABRASIVES &amp; COATINGS
  </text>
  <text x="130" y="350" fill="#dbe0e3" font-family="Source Sans 3, Segoe UI, sans-serif" font-size="40" font-weight="600" letter-spacing="1">
    BUILT TO LAST. DONE RIGHT.
  </text>
  <rect x="130" y="395" width="380" height="4" fill="url(#accent)" />
  <text x="130" y="450" fill="#bbc4ca" font-family="Source Sans 3, Segoe UI, sans-serif" font-size="30">
    Local Sandblasting and Surface Prep
  </text>
</svg>
